<svg width="97" height="37" viewBox="0 0 97 37" fill="none" xmlns="http://www.w3.org/2000/svg">
<path d="M23.8889 32.28C22.8389 32.73 21.7289 33.075 20.5589 33.315C19.3889 33.585 18.1739 33.72 16.9139 33.72C14.5139 33.72 12.2789 33.285 10.2089 32.415C8.16895 31.545 6.39895 30.36 4.89895 28.86C3.39895 27.33 2.21395 25.545 1.34395 23.505C0.503945 21.435 0.0839453 19.23 0.0839453 16.89C0.0839453 14.55 0.503945 12.36 1.34395 10.32C2.21395 8.25 3.39895 6.465 4.89895 4.965C6.39895 3.435 8.16895 2.235 10.2089 1.365C12.2789 0.494998 14.5139 0.0599976 16.9139 0.0599976C19.3139 0.0599976 21.5339 0.494998 23.5739 1.365C25.6439 2.235 27.4289 3.435 28.9289 4.965C30.4289 6.465 31.5989 8.25 32.4389 10.32C33.3089 12.36 33.7439 14.55 33.7439 16.89C33.7439 19.38 33.2789 21.69 32.3489 23.82C31.4189 25.95 30.1139 27.78 28.4339 29.31L30.9089 33L26.4089 36.015L23.8889 32.28ZM17.0489 22.02L21.5489 18.96L25.0589 24.27C25.8689 23.34 26.4989 22.26 26.9489 21.03C27.4289 19.77 27.6689 18.39 27.6689 16.89C27.6689 15.24 27.3839 13.74 26.8139 12.39C26.2739 11.01 25.5089 9.84 24.5189 8.88C23.5589 7.92 22.4189 7.17 21.0989 6.63C19.8089 6.09 18.4139 5.82 16.9139 5.82C15.4139 5.82 14.0039 6.09 12.6839 6.63C11.3939 7.17 10.2539 7.92 9.26395 8.88C8.30395 9.84 7.53895 11.01 6.96895 12.39C6.42895 13.74 6.15895 15.24 6.15895 16.89C6.15895 18.54 6.42895 20.055 6.96895 21.435C7.53895 22.785 8.30395 23.94 9.26395 24.9C10.2539 25.86 11.3939 26.61 12.6839 27.15C14.0039 27.69 15.4139 27.96 16.9139 27.96C17.5739 27.96 18.2039 27.9 18.8039 27.78C19.4039 27.66 19.9889 27.495 20.5589 27.285L17.0489 22.02ZM53.1959 30.12H52.8359C52.1459 31.23 51.2159 32.115 50.0459 32.775C48.8759 33.405 47.5409 33.72 46.0409 33.72C43.2509 33.72 41.1659 32.865 39.7859 31.155C38.4359 29.445 37.7609 27.165 37.7609 24.315V10.95H43.6559V23.595C43.6559 25.185 44.0009 26.37 44.6909 27.15C45.4109 27.9 46.4459 28.275 47.7959 28.275C48.6059 28.275 49.3109 28.11 49.9109 27.78C50.5409 27.42 51.0659 26.955 51.4859 26.385C51.9359 25.785 52.2659 25.095 52.4759 24.315C52.7159 23.505 52.8359 22.65 52.8359 21.75V10.95H58.7309V33H53.1959V30.12ZM74.001 10.23C75.711 10.23 77.271 10.53 78.681 11.13C80.121 11.7 81.351 12.51 82.371 13.56C83.421 14.58 84.231 15.81 84.801 17.25C85.401 18.69 85.701 20.265 85.701 21.975C85.701 23.685 85.401 25.26 84.801 26.7C84.231 28.14 83.421 29.385 82.371 30.435C81.351 31.455 80.121 32.265 78.681 32.865C77.271 33.435 75.711 33.72 74.001 33.72C72.291 33.72 70.716 33.435 69.276 32.865C67.866 32.265 66.636 31.455 65.586 30.435C64.566 29.385 63.756 28.14 63.156 26.7C62.586 25.26 62.301 23.685 62.301 21.975C62.301 20.265 62.586 18.69 63.156 17.25C63.756 15.81 64.566 14.58 65.586 13.56C66.636 12.51 67.866 11.7 69.276 11.13C70.716 10.53 72.291 10.23 74.001 10.23ZM74.001 28.275C74.751 28.275 75.471 28.14 76.161 27.87C76.881 27.57 77.511 27.15 78.051 26.61C78.591 26.07 79.011 25.41 79.311 24.63C79.641 23.85 79.806 22.965 79.806 21.975C79.806 20.985 79.641 20.1 79.311 19.32C79.011 18.54 78.591 17.88 78.051 17.34C77.511 16.8 76.881 16.395 76.161 16.125C75.471 15.825 74.751 15.675 74.001 15.675C73.221 15.675 72.486 15.825 71.796 16.125C71.106 16.395 70.491 16.8 69.951 17.34C69.411 17.88 68.976 18.54 68.646 19.32C68.346 20.1 68.196 20.985 68.196 21.975C68.196 22.965 68.346 23.85 68.646 24.63C68.976 25.41 69.411 26.07 69.951 26.61C70.491 27.15 71.106 27.57 71.796 27.87C72.486 28.14 73.221 28.275 74.001 28.275ZM93.0438 33.27C91.9638 33.27 91.0338 32.895 90.2538 32.145C89.5038 31.365 89.1288 30.435 89.1288 29.355C89.1288 28.275 89.5038 27.36 90.2538 26.61C91.0338 25.86 91.9638 25.485 93.0438 25.485C94.1238 25.485 95.0388 25.86 95.7888 26.61C96.5388 27.36 96.9138 28.275 96.9138 29.355C96.9138 30.435 96.5388 31.365 95.7888 32.145C95.0388 32.895 94.1238 33.27 93.0438 33.27Z" fill="#6C60FE"/>
</svg>
